<?xml version="1.0" encoding="UTF-8"?>
<svg width="24px" height="24px" viewBox="0 0 24 24" version="1.1" xmlns="http://www.w3.org/2000/svg">
    <path d="M16,12 L16,4 L8,4 L8,12 L2,12 L12,22 L22,12 L16,12 Z M8,2 L16,2 C17.1045695,2 18,2.8954305 18,4 L18,12 L20.5857864,12 C21.7043531,12 22.2641602,13.3465171 21.5,14.1106602 L12.9142136,22.6964466 C12.133165,23.4775952 10.866835,23.4775952 10.0857864,22.6964466 L1.5,14.1106602 C0.735839843,13.3465171 1.29564686,12 2.41421356,12 L5,12 L5,4 C5,2.8954305 5.8954305,2 7,2 L8,2 Z" fill="#000000"/>
</svg>